<svg preserveAspectRatio="xMidYMid meet"  fill="#8fd3e8" data-bbox="18 29.5 163.901 141" xmlns="http://www.w3.org/2000/svg" viewBox="18 29.5 163.901 141" role="presentation" aria-hidden="true">
    <g>
        <path d="M157.8 48c-15.5-11.9-36-18.5-57.8-18.5-21.8 0-42.3 6.6-57.8 18.5C26.6 60.1 18 76.1 18 93.3c0 17.1 8.6 33.2 24.2 45.2 15.5 11.9 36 18.5 57.8 18.5h.9c10.6-.2 13.9-.1 14.9 0 12.5 12.8 17.8 13.5 18.7 13.5h1.6l6.4-22.8c11.6-5.5 21.4-13.2 28.2-22.3 7.3-9.7 11.2-20.8 11.2-32.2.1-17.1-8.5-33.1-24.1-45.2zM140 144.4l-.9.4-5.9 21c-2.2-1-6.9-3.9-14.8-12.1-.6-.6-1-1-8.1-1-2.3 0-5.4 0-9.5.1h-.9C57 152.8 22 126 22 93.2c0-32.9 34.9-59.6 77.9-59.6 42.9 0 77.9 26.8 77.9 59.6.1 20.9-14.4 40.5-37.8 51.2z"></path>
        <path d="M126.2 65.8c-13.5-5.8-22.2.2-26.5 6.3-3.5-5.3-11.1-12.5-25.6-6.3-7 3-11 8.8-11.4 16.3-.3 7.1 2.8 15.4 8.7 23.2 6.4 8.4 15.7 16.1 27 22.1l1 .5 1-.5c26.2-14 37.3-33.2 36.8-46-.3-7.1-4.2-12.7-11-15.6zm-26.7 57.5c-23.2-12.7-33.1-29.7-32.6-41 .3-5.9 3.3-10.3 8.9-12.7 3.3-1.4 6.2-2 8.7-2 8.1 0 12 6.3 13.4 9.6l1.9 4.3 1.9-4.3c.3-.8 2.3-4.8 6.4-7.4 4.5-2.8 10.1-2.9 16.6-.1 5.3 2.3 8.3 6.4 8.5 12.1.4 10.9-9.9 28.5-33.7 41.5z"></path>
    </g>
</svg>