<svg preserveAspectRatio="xMidYMid meet" fill="#8fd3e8" data-bbox="20 20 160 160" xmlns="http://www.w3.org/2000/svg" viewBox="20 20 160 160" role="presentation" aria-hidden="true">
    <g>
        <path d="M100 20c-44.1 0-80 35.9-80 80s35.9 80 80 80 80-35.9 80-80-35.9-80-80-80zm0 155.3c-41.5 0-75.3-33.8-75.3-75.3S58.5 24.7 100 24.7s75.3 33.8 75.3 75.3-33.8 75.3-75.3 75.3z"></path>
        <path d="M152.7 96.5h-39.1v-1c-.1-2.9-1.8-5.3-4.5-6.5-1.2-.5-2.4-.8-3.4-.9V56.3c0-3.9-3.1-7-7-7h-.3c-3.9 0-7 3.1-7 7v32.6c-.1 0-.1 0-.2.1-2.8 1.2-4.5 3.6-4.6 6.7-.2 5.6 4.6 11.9 12.3 16.1l1.1.6 1.1-.6c.5-.3 1.1-.6 1.6-.9h50.1c3.9 0 7-3.1 7-7v-.3c-.1-4-3.3-7.1-7.1-7.1zM95.9 56.3c0-1.3 1-2.3 2.3-2.3h.3c1.3 0 2.3 1 2.3 2.3v33c-.3.2-.6.4-.9.7-1.1-1-2.4-1.7-4-1.9V56.3zm3.9 50.6c-6.1-3.6-8.8-8.2-8.7-11.1.1-1.2.6-2.1 1.8-2.6.6-.3 1.4-.5 2.1-.5 1 0 2 .5 2.7 2.1l2.1 4.9 2.1-4.9c.4-.9 1.7-3 5.1-1.5 1.1.5 1.6 1.2 1.7 2.4.3 2.9-2.8 7.6-8.9 11.2zm55.2-3.2c0 1.3-1 2.3-2.3 2.3h-44.2c1.5-1.6 2.8-3.3 3.6-4.9h40.5c1.3 0 2.3 1 2.3 2.3v.3z"></path>
    </g>
</svg>