<svg preserveAspectRatio="xMidYMid meet" fill="#8fd3e8" data-bbox="4.999 13.89 190.045 172.11" xmlns="http://www.w3.org/2000/svg" viewBox="4.999 13.89 190.045 172.11" role="presentation" aria-hidden="true">
    <g>
        <path d="M144.8 72c-17.7-7.5-29.9-3.8-37.1.7-5.9 3.7-9.7 8.6-12 12.2C90 75.3 76.1 60.1 48.2 72c-12.7 5.4-19.9 15.9-20.5 29.5-.6 13.1 5.1 28.2 16.1 42.7C55.6 159.9 73 174.1 94 185.3l1.2.7 1.2-.7c21.4-11.4 39.2-25.9 51.4-41.8 11.4-14.8 17.4-30.1 16.8-43.2-.5-13-7.6-23.1-19.8-28.3zm-1.1 68.3c-11.6 15-28.3 28.8-48.5 39.7-19.8-10.8-36.1-24.3-47.3-39-10.2-13.5-15.6-27.5-15-39.3.5-11.7 6.5-20.3 17.4-24.9 6.5-2.8 12.1-3.9 16.9-3.9 15.9 0 23.3 12.3 26.1 18.7l2.4 5.5 2.4-5.5c1.3-2.9 13.4-28.2 44.7-14.8 10.4 4.5 16.2 12.7 16.7 23.7.5 11.9-5.1 26-15.8 39.8z"></path>
        <path d="M54.8 64c3.9 0 9.1-.9 15.8-2.1l.4-.1c3.1-.5 8.3-3.2 7.7-14.7-.3-6.1-2.2-13.9-5.1-20.8-3.3-8-6.7-12.1-9.9-12.4-8.7-.5-19.1 17.1-20 29.8-.6 8.7-.3 14.7 3.3 17.9 1.9 1.7 4.4 2.4 7.8 2.4zm-5.9-19.9c.4-5.2 2.7-11.8 6.1-17.2 3.6-5.7 6.7-7.7 8.1-7.7 1 .5 3.8 4.1 6.7 12.2 2.7 7.5 4 15 3.5 19.9-.5 4.9-2.6 5.3-3.3 5.4l-.4.1c-10.2 1.8-17 3-19.3.9-1.5-1.5-1.9-5.5-1.4-13.6z"></path>
        <path d="M41 67.3c4.4-6-3.3-21.9-4.9-25-2.8-5.4-8.2-14.5-13.4-14.5C14.1 27.8 4.9 46 5 58.9c.1 13.5 3.3 21.5 9.7 23.5 1.1.4 2.2.5 3.3.5 9.4 0 19.5-10.9 23-15.6zM16.3 77.4c-3.9-1.3-6-7.9-6.1-18.6 0-5.2 1.8-11.9 4.8-17.6 3.2-6 6.3-8.3 7.6-8.3 1.6.3 6.8 6.3 11.2 16.9 3.5 8.5 3.7 13.3 2.9 14.3-4.9 6.8-14.7 15.1-20.4 13.3z"></path>
        <path d="M128.9 61.4l.4.1c8.2 2.8 13.9 4.7 18.2 4.7 2 0 3.8-.4 5.3-1.4 4-2.6 5.2-8.5 5.9-17.2 1-12.8-6.6-31.7-15.2-32.4-3.3-.3-7.2 3.3-11.7 10.7-3.9 6.4-7 13.8-8.2 19.8-2.4 11.3 2.3 14.7 5.3 15.7zm14.1-41zm-14.8 30.2c.2-5 2.6-12.1 6.4-19.1 4.1-7.6 7.5-10.7 8.5-11 1.4.2 4.2 2.7 6.9 8.8 2.5 5.8 3.9 12.7 3.4 17.9-.7 8.1-1.7 12-3.6 13.2-2.6 1.7-9.1-.5-18.9-3.8l-.4-.1c-.6-.3-2.5-.9-2.3-5.9z"></path>
        <path d="M181.9 35c-5.2-.8-11.9 7.4-15.5 12.3-2 2.8-12.1 17.4-8.6 24 2.9 5.5 12.2 19 22 19 .6 0 1.1 0 1.7-.1 6.6-1.1 11-8.4 13.2-21.8 1.9-12.7-4.3-32.1-12.8-33.4zm-.8 5.1zm8.4 27.5c-1.7 10.6-4.8 16.8-8.8 17.5-5.9 1-14.3-8.8-18.2-16.1-.6-1.1.3-5.8 5-13.7 6-9.8 12-15 13.6-15 1.3.2 4 2.9 6.3 9.3 2.1 5.9 2.9 12.8 2.1 18z"></path>
    </g>
</svg>