<svg version="1.2" baseProfile="tiny-ps" xmlns="http://www.w3.org/2000/svg" viewBox="0 0 1280 720" width="1280" height="720">
	<title>template</title>
	<style>
		tspan { white-space:pre }
		.shp0 { fill: #3e200f } 
		.shp1 { fill: #995024 } 
		.txt2 { font-size: 19px;fill: #ffffff;font-weight: 400;font-style: italic;font-family: "Sansita-Italic", "Sansita" } 
		.txt3 { font-size: 48px;fill: #ffffff;font-weight: 900;font-family: "Aileron-Black", "Aileron" } 
	</style>
	<path id="Background" class="shp0" d="M0 0L1280 0L1280 720L0 720L0 0Z" />
	<g id="flower">
		<path id="Layer" fill-rule="evenodd" class="shp1" d="M390.92 401.9L401.04 404.43C394.72 519.45 382.08 586.45 360.59 606.67C323.93 662.29 248.09 648.38 262 573.81C198.79 600.35 167.2 559.9 188.68 505.55C211.44 463.84 282.22 425.92 378.28 389.26L384.6 395.58L360.59 427.18C360.59 433.5 363.12 436.03 369.44 433.5L390.92 401.9ZM365.64 458.78C365.64 447.41 356.8 438.56 346.68 438.56C336.57 438.56 327.72 447.41 327.72 458.78C327.72 468.89 336.57 477.74 346.68 477.74C356.8 477.74 365.64 468.89 365.64 458.78ZM375.75 366.51L375.75 376.62C264.52 406.96 197.53 414.54 172.25 401.9C106.52 382.94 96.41 307.1 170.99 296.99C126.75 245.16 155.82 202.19 215.23 205.98C260.73 216.09 318.88 270.45 383.34 351.34L379.55 358.93L341.63 345.02C335.31 347.55 334.04 351.34 337.84 356.4L375.75 366.51ZM313.82 360.19C323.93 356.4 330.25 346.29 326.46 336.17C322.67 326.06 312.56 319.74 302.44 323.53C292.33 327.33 286.01 337.44 289.8 347.55C292.33 357.66 303.71 363.98 313.82 360.19ZM403.56 341.23L394.72 345.02C331.51 247.69 303.71 187.02 307.5 157.95C304.97 89.69 374.49 58.09 407.36 125.09C442.75 66.94 492.04 80.84 507.21 137.72C512.27 185.76 478.14 257.81 421.26 343.76L413.68 342.49L413.68 302.05C409.88 296.99 406.09 295.73 402.3 302.05L403.56 341.23ZM390.92 280.56C397.24 289.41 409.88 290.67 418.73 284.35C426.32 278.03 428.84 266.65 422.52 257.81C416.2 248.96 403.56 246.43 394.72 252.75C387.13 259.07 384.6 271.71 390.92 280.56ZM437.69 360.19L431.37 352.61C503.42 262.86 552.72 216.09 581.79 212.3C644.99 188.28 698.08 243.9 643.72 295.73C709.45 312.16 711.98 362.72 661.42 394.32C618.44 414.54 540.08 404.43 440.22 376.62L438.96 369.04L476.88 356.4C480.67 351.34 480.67 348.81 473.08 346.29L437.69 360.19ZM490.78 328.59C484.46 337.44 486.99 350.08 495.84 356.4C503.42 362.72 516.06 360.19 522.38 351.34C528.7 342.49 526.17 331.12 518.59 324.8C509.74 318.48 497.1 319.74 490.78 328.59ZM430.11 396.85L435.16 389.26C542.6 429.71 602.01 462.57 614.65 489.12C657.63 542.21 620.97 609.2 553.98 573.81C559.04 642.06 512.27 659.76 465.5 621.84C433.9 587.71 418.73 509.34 413.68 405.69L421.26 401.9L445.28 434.77C450.33 437.29 454.12 434.77 454.12 427.18L430.11 396.85ZM475.61 438.56C465.5 436.03 454.12 441.09 451.6 451.2C447.8 461.31 454.12 472.69 464.24 475.21C474.35 479 484.46 473.95 488.25 463.84C492.04 452.46 485.72 442.35 475.61 438.56Z" />
	</g>
	<text id="What a beautiful day." style="transform: matrix(1,0,0,1,1044,390.72)" >
		<tspan x="-80.807" y="0" class="txt2">What a beautiful day.
</tspan>
	</text>
	<text id="Hello World!" style="transform: matrix(1,0,0,1,1044,361.92)" >
		<tspan x="-172.416" y="0" class="txt3">T</tspan><tspan  y="0" class="txt3">e</tspan><tspan  y="0" class="txt3">s</tspan><tspan  y="0" class="txt3">t</tspan><tspan  y="0" class="txt3">a</tspan><tspan  y="0" class="txt3">n</tspan><tspan  y="0" class="txt3">d</tspan><tspan  y="0" class="txt3">o</tspan><tspan  y="0" class="txt3"> </tspan><tspan  y="0" class="txt3">S</tspan><tspan  y="0" class="txt3">V</tspan><tspan  y="0" class="txt3">G</tspan><tspan  y="0" class="txt3">!
</tspan>
	</text>
</svg>